<?xml version="1.0" encoding="UTF-8"?>
<svg id="Layer_1" data-name="Layer 1" xmlns="http://www.w3.org/2000/svg" viewBox="0 0 1919.57 197.83">
  <polygon points="1011.64 13.97 1041.54 115.47 1079.64 21.86 1081.29 20.94 1119.45 116.11 1149.66 13.97 1178.28 13.97 1125.54 181.82 1123.35 182.01 1080.96 82.48 1078.95 85.23 1038.69 181.47 1036.76 182.14 983.02 13.97 1011.64 13.97"/>
  <path d="M1496.92,180.18V13.97c36.33,1.16,74.16-6.29,104.88,17.51,38.51,29.84,38.38,101.77-.26,131.56-30.39,23.43-68.76,15.94-104.61,17.14ZM1523,154.17c21.8.38,45.02,1.53,62.63-13.34,25.63-21.65,24.17-70.83-3.65-90.22-17.79-12.4-38.26-10.79-58.98-10.64v114.2Z"/>
  <polygon points="1439.05 121.18 1439.05 13.33 1465.12 13.33 1465.12 182.72 1357 72.33 1357 180.18 1330.92 180.18 1330.92 10.79 1439.05 121.18"/>
  <path d="M1838.79,13.97c53.69,4.73,71.19,78.9,18.37,99.54-.66.26-1.09-.34-.87,1l48.33,65.67h-32.12l-44.84-64.08h-20.99v64.08h-26.08V13.97h58.2ZM1806.67,94.54h29.57c12.56,0,25.2-14.12,25.78-26.31.6-12.6-11.46-28.25-24.51-28.25h-30.85v54.56Z"/>
  <polygon points="112.31 13.97 112.31 39.98 39.17 39.98 39.17 82.48 102.13 82.48 102.13 108.49 39.17 108.49 39.17 154.17 112.31 154.17 112.31 180.18 13.09 180.18 13.09 13.97 112.31 13.97"/>
  <polygon points="907.33 13.97 907.33 39.98 834.19 39.98 834.19 82.48 897.16 82.48 897.16 108.49 834.19 108.49 834.19 154.17 907.33 154.17 907.33 180.18 808.12 180.18 808.12 13.97 907.33 13.97"/>
  <polygon points="1753.24 13.97 1753.24 39.98 1680.1 39.98 1680.1 82.48 1743.06 82.48 1743.06 108.49 1680.1 108.49 1680.1 154.17 1753.24 154.17 1753.24 180.18 1654.02 180.18 1654.02 13.97 1753.24 13.97"/>
  <path d="M284.04,180.18h-28.3l-11.19-24.36-2.13-1.05-76.26.14-11.87,25.28h-28.62L204.85,10.77l79.19,169.42ZM233.79,132.6l-28.94-64.06-28.94,64.06h57.88Z"/>
  <path d="M1313.12,180.18h-28.3l-11.19-24.36-2.13-1.05-76.26.14-11.87,25.28h-28.62l79.18-169.42,79.19,169.42ZM1262.87,132.6l-28.94-64.06-28.94,64.06h57.88Z"/>
  <polygon points="662.15 13.97 711.45 125.62 762 13.97 789.67 13.97 712.4 183.4 710.48 182.72 634.48 13.97 662.15 13.97"/>
  <polygon points="385.8 13.97 385.8 39.98 341.28 39.98 341.28 180.18 315.2 180.18 315.2 39.98 271 39.98 270.04 39.03 270.04 13.97 385.8 13.97"/>
  <polygon points="494.56 13.97 494.56 154.17 568.97 154.17 568.97 180.18 468.48 180.18 468.48 13.97 494.56 13.97"/>
  <rect x="589.96" y="13.97" width="26.08" height="166.22"/>
</svg>